# AST/ASF file generated using VICON BodyLanguage
# -----------------------------------------------
:version 1.10
:name VICON
:units
  mass 1.0
  length 0.45
  angle deg
:documentation
   .ast/.asf automatically generated from VICON data using
   VICON BodyBuilder and BodyLanguage model FoxedUp or BRILLIANT.MOD
:root
   order TX TY TZ RX RY RZ
   axis XYZ
   position 0 0 0  
   orientation 0 -0 0 
:bonedata
  begin
     id 1 
     name lhipjoint
     direction 0.500677 -0.737119 0.453848 
     length 2.34727 
     axis 0 -0 0  XYZ
  end
  begin
     id 2 
     name lfemur
     direction 0.34202 -0.939693 0  
     length 7.53653  
     axis 0 -0 20  XYZ
    dof rx ry rz
    limits (-160.0 20.0)
           (-70.0 70.0)
           (-60.0 70.0)
  end
  begin
     id 3 
     name ltibia
     direction 0.34202 -0.939693 0   
     length 6.85572   
     axis 0 -0 20   XYZ
    dof rx
    limits (-10.0 170.0)
  end
  begin
     id 4 
     name lfoot
     direction 0.155313 -0.426718 0.890949   
     length 2.18324   
     axis -90 -1.13533e-015 20   XYZ
    dof rx rz
    limits (-45.0 90.0)
           (-70.0 20.0)
  end
  begin
     id 5 
     name ltoes
     direction 1.53474e-011 -4.21647e-011 1   
     length 1.06748   
     axis -90 -1.13533e-015 20   XYZ
    dof rx
    limits (-90.0 20.0)
  end
  begin
     id 6 
     name rhipjoint
     direction -0.632471 -0.659587 0.406111   
     length 2.62319  
     axis 0 -0 0  XYZ 
  end
  begin
     id 7 
     name rfemur
     direction -0.34202 -0.939693 0   
     length 7.21735   
     axis 0 -0 -20   XYZ
    dof rx ry rz
    limits (-160.0 20.0)
           (-70.0 70.0)
           (-70.0 60.0)
  end
  begin
     id 8 
     name rtibia
     direction -0.34202 -0.939693 0   
     length 7.02558   
     axis 0 -0 -20   XYZ
    dof rx
    limits (-10.0 170.0)
 end
 begin
     id 9 
     name rfoot
     direction -0.16057 -0.441164 0.882945   
     length 2.10014  
     axis -90 1.13533e-015 -20   XYZ
    dof rx rz
    limits (-45.0 90.0)
           (-20.0 70.0)
  end
  begin
     id 10 
     name rtoes
     direction -1.53553e-011 -4.2192e-011 1   
     length 1.02554   
     axis -90 1.13533e-015 -20   XYZ
    dof rx
    limits (-90.0 20.0)
  end
  begin
     id 11 
     name lowerback
     direction 0.0401429 0.998861 -0.0258085   
     length 1.80848   
     axis 0 -0 0   XYZ
    dof rx ry rz
    limits (-20.0 45.0)
           (-30.0 30.0)
           (-30.0 30.0)
  end
  begin
     id 12 
     name upperback
     direction -0.0130978 0.999914 -0.000352645   
     length 1.8116   
     axis 0 -0 0   XYZ
    dof rx ry rz
    limits (-20.0 45.0)
           (-30.0 30.0)
           (-30.0 30.0)
  end
  begin
     id 13 
     name thorax
     direction -0.0300198 0.999453 0.0138573   
     length 1.81778   
     axis 0 -0 0   XYZ
    dof rx ry rz
    limits (-20.0 45.0)
           (-30.0 30.0)
           (-30.0 30.0)
  end
  begin
     id 14 
     name lowerneck
     direction -0.0401726 0.999191 -0.00173647   
     length 2.10594   
     axis 0 -0 0   XYZ
    dof rx ry rz
    limits (-20.0 45.0)
           (-30.0 30.0)
           (-30.0 30.0)
  end
  begin
     id 15 
     name upperneck
     direction 0.0119835 0.998501 0.0534085   
     length 2.07325   
     axis 0 -0 0   XYZ
    dof rx ry rz
    limits (-20.0 45.0)
           (-30.0 30.0)
           (-30.0 30.0)
  end
  begin
     id 16
     name head
     direction 0.00628309 0.999826 0.0175921  
     length 2.15096  
     axis 0 -0 0   XYZ
    dof rx ry rz
    limits (-20.0 45.0)
           (-30.0 30.0)
           (-30.0 30.0)
  end
  begin
     id 17 
     name lclavicle
     direction 0.895501 0.429681 -0.115981  
     length 4.18092  
     axis 0 -0 0   XYZ
    dof ry rz
    limits (-20.0 10.0)
           (0.0 20.0)
  end
  begin
     id 18 
     name lhumerus
     direction 1 -4.48961e-011 -3.38433e-028   
     length 5.77237   
     axis 180 -30 -90   XYZ
    dof rx ry rz
    limits (-60.0 90.0)
           (-90.0 90.0)
           (-90.0 90.0)
  end
  begin
     id 19
     name lradius
     direction 1 -4.4901e-011 1.11983e-026   
     length 2.91878   
     axis 180 -30 -90   XYZ
    dof rx
    limits (-10.0 170.0)
  end
  begin
     id 20
     name lwrist
     direction 1 -4.48934e-011 1.88176e-026   
     length 1.45939   
     axis -1.23311e-014 90 90   XYZ
    dof ry
    limits (-180.0 0.0)
 end
  begin
     id 21 
     name lhand
     direction 1 -4.4895e-011 3.76352e-026   
     length 1.06566   
     axis -2.40147e-014 90 90   XYZ
    dof rx rz
    limits (-90.0 90.0)
           (-45.0 45.0)
  end
  begin
     id 22 
     name lfingers
     direction 1 -4.49005e-011 7.52705e-026   
     length 0.859162   
     axis -4.80295e-014 90 90   XYZ
    dof rx
    limits (0.0 90.0)
  end
  begin
     id 23
     name lthumb
     direction 0.707107 -6.34885e-011 0.707107   
     length 1.23359   
     axis -90 45 -9.86935e-015   XYZ
    dof rx rz
    limits (-45.0 45.0)
           (-45.0 45.0)
  end
  begin
     id 24 
     name rclavicle
     direction -0.91006 0.40451 -0.0903492   
     length 4.23293  
     axis 0 -0 0   XYZ 
    dof ry rz
    limits (-10.0 20.0)
           (-20.0 0.0)
  end
  begin
     id 25 
     name rhumerus
     direction -1 -4.4897e-011 1.7415e-027  
     length 5.49854   
     axis 180 30 90   XYZ
    dof rx ry rz
    limits (-90.0 60.0)
           (-90.0 90.0)
           (-90.0 90.0)
  end
  begin
     id 26 
     name rradius
     direction -1 -4.48963e-011 1.21259e-026   
     length 3.1186   
     axis 180 30 90   XYZ
    dof rx
    limits (-10.0 170.0)
  end
  begin
     id 27 
     name rwrist
     direction -1 -4.48967e-011 1.88176e-026   
     length 1.5593   
     axis -1.23311e-014 -90 -90   XYZ
    dof ry
    limits (-180.0 0.0)
  end
  begin
     id 28
     name rhand
     direction -1 -4.4895e-011 3.76352e-026   
     length 0.71207   
     axis -2.40147e-014 -90 -90   XYZ
    dof rx rz
    limits (-90.0 90.0)
           (-45.0 45.0)
  end
  begin
     id 29
     name rfingers
     direction -1 -4.49005e-011 7.52705e-026   
     length 0.574089   
     axis -4.80295e-014 -90 -90   XYZ
    dof rx
    limits (0.0 90.0)
  end
  begin
     id 30
     name rthumb
     direction -0.707107 -6.34982e-011 0.707107   
     length 0.824281   
     axis -90 -45 9.86935e-015   XYZ
    dof rx rz
    limits (-45.0 45.0)
           (-45.0 45.0)
  end
:hierarchy
  begin
    root lhipjoint rhipjoint lowerback
    lhipjoint lfemur
    lfemur ltibia
    ltibia lfoot
    lfoot ltoes
    rhipjoint rfemur
    rfemur rtibia
    rtibia rfoot
    rfoot rtoes
    lowerback upperback
    upperback thorax
    thorax lowerneck lclavicle rclavicle
    lowerneck upperneck
    upperneck head
    lclavicle lhumerus
    lhumerus lradius
    lradius lwrist
    lwrist lhand lthumb
    lhand lfingers
    rclavicle rhumerus
    rhumerus rradius
    rradius rwrist
    rwrist rhand rthumb
    rhand rfingers
  end

#!OML:ASF C:\ViconDB\ViconDB\414\Spring2016\042216\male.ASF
:FULLY-SPECIFIED
:DEGREES
307
root -31.1625 15.7314 12.718 -150.462 77.3971 -173.174
lowerback 5.54202 -3.42697 9.79062
upperback 0.0981437 -3.84456 1.22275
thorax -3.57712 -2.04237 -3.8522
lowerneck -0.00768478 0.158286 -6.23641
upperneck -27.7482 2.05894 4.60376
head -8.71863 1.69778 2.42474
rclavicle -2.02263e-014 -1.41137e-014
rhumerus -31.0199 10.6942 -89.1464
rradius 74.6087
rwrist -1.89227
rhand -0.196163 -26.2042
rfingers 7.12502
rthumb 25.4025 -54.5318
lclavicle -2.02263e-014 -1.41137e-014
lhumerus -22.6927 -3.11271 92.4887
lradius 83.5587
lwrist 21.3046
lhand -21.5322 9.85228
lfingers 7.12502
lthumb 4.86052 39.7765
rfemur -30.077 -3.76598 29.7654
rtibia 53.3294
rfoot -33.6422 -6.71303
rtoes -25.8201
lfemur -25.5717 -3.7236 -12.758
ltibia 75.9792
lfoot -19.477 14.7991
ltoes -13.2879
308
root -30.8226 15.7895 12.7512 -149.03 78.1926 -171.707
lowerback 5.73928 -3.1772 9.35106
upperback 0.063276 -3.52104 1.18078
thorax -3.65357 -1.88072 -3.67676
lowerneck 0.082667 0.222747 -6.01194
upperneck -27.8121 2.06596 4.2024
head -8.75508 1.7147 2.24704
rclavicle -2.98177e-015 1.05356e-014
rhumerus -28.8992 12.0855 -89.4314
rradius 78.5427
rwrist -2.01812
rhand -0.00822115 -26.213
rfingers 7.12502
rthumb 25.5825 -54.5149
lclavicle -2.98177e-015 1.05356e-014
lhumerus -24.5374 -1.89432 91.8337
lradius 83.6321
lwrist 21.0371
lhand -21.7015 9.7362
lfingers 7.12502
lthumb 4.69705 39.6641
rfemur -27.489 -2.63036 29.8634
rtibia 50.7557
rfoot -33.265 -6.22289
rtoes -24.5453
lfemur -28.55 -2.29973 -12.8922
ltibia 78.6796
lfoot -20.7987 15.8765
ltoes -13.4506
309
root -30.4686 15.8397 12.7664 -148.634 79.1355 -171.082
lowerback 5.82756 -2.93645 8.84413
upperback 0.186209 -3.2443 0.984536
thorax -3.51814 -1.7304 -3.63048
lowerneck 0.255181 0.303943 -5.98072
upperneck -28.0436 2.17563 4.13884
head -8.87453 1.77408 2.21204
rclavicle 6.52511e-014 9.14409e-015
rhumerus -26.1507 13.4578 -89.7868
rradius 81.1771
rwrist -2.11608
rhand -0.21422 -25.4154
rfingers 7.12502
rthumb 25.3852 -53.7455
lclavicle 6.52511e-014 9.14409e-015
lhumerus -26.3815 -0.709588 91.1463
lradius 83.7743
lwrist 20.999
lhand -21.7112 9.62114
lfingers 7.12502
lthumb 4.68761 39.5493
rfemur -24.4274 -1.95224 29.7159
rtibia 47.8033
rfoot -32.5377 -6.32209
rtoes -26.146
lfemur -31.1034 -1.15644 -13.4683
ltibia 80.8348
lfoot -21.9847 15.6089
ltoes -9.66398
310
root -30.1061 15.9031 12.7761 -146.954 80.0862 -168.893
lowerback 6.28638 -2.68502 8.55018
upperback 0.284855 -2.89535 0.801765
thorax -3.62118 -1.55586 -3.67813
lowerneck 0.21088 0.368212 -5.60664
upperneck -27.8462 2.19934 3.80771
head -8.79235 1.7704 2.03047
rclavicle 3.65018e-014 2.39536e-014
rhumerus -23.8013 14.8321 -90.1741
rradius 84.0784
rwrist -3.19096
rhand -1.13273 -25.0403
rfingers 7.12502
rthumb 24.505 -53.4925
lclavicle 3.65018e-014 2.39536e-014
lhumerus -28.2968 0.530728 90.3657
lradius 83.6817
lwrist 20.7898
lhand -21.5684 9.48865
lfingers 7.12502
lthumb 4.82549 39.4137
rfemur -20.9541 -1.12113 29.7102
rtibia 44.4535
rfoot -31.189 -5.9376
rtoes -26.6825
lfemur -33.3583 0.152868 -13.8724
ltibia 82.4916
lfoot -23.1427 15.2368
ltoes -6.35333
311
root -29.7368 15.9764 12.7904 -147.284 81.0591 -168.687
lowerback 6.73747 -2.37767 7.81605
upperback 0.393093 -2.51522 0.548534
thorax -3.69014 -1.35869 -3.56078
lowerneck 0.403525 0.29963 -5.53146
upperneck -27.9164 2.11025 3.86572
head -8.84644 1.71248 2.04379
rclavicle 6.65432e-014 3.52843e-015
rhumerus -21.63 15.8595 -90.2156
rradius 86.9499
rwrist -3.70289
rhand -0.913168 -25.8992
rfingers 7.12502
rthumb 24.7154 -54.3227
lclavicle 6.65432e-014 3.52843e-015
lhumerus -30.0919 1.53011 89.544
lradius 83.3211
lwrist 19.8648
lhand -20.7175 9.55096
lfingers 7.12502
lthumb 5.64715 39.4557
rfemur -17.3232 -0.394163 29.3419
rtibia 40.7959
rfoot -29.3078 -6.10807
rtoes -27.5435
lfemur -35.5217 0.953215 -14.7593
ltibia 83.6008
lfoot -25.0541 16.3594
ltoes -9.20149
312
root -29.3556 16.0559 12.8087 -144.179 81.5872 -165.322
lowerback 6.7711 -2.04342 7.61998
upperback 0.47638 -2.09197 0.433782
thorax -3.56707 -1.14089 -3.61815
lowerneck 0.282966 0.244386 -5.35296
upperneck -27.7391 2.0635 3.93798
head -8.75709 1.66399 2.04065
rclavicle -2.40654e-014 -4.34841e-015
rhumerus -19.575 16.6981 -90.2876
rradius 89.3838
rwrist -4.15984
rhand -1.5089 -24.8121
rfingers 7.12502
rthumb 24.1443 -53.3127
lclavicle -2.40654e-014 -4.34841e-015
lhumerus -31.747 1.85847 88.9564
lradius 83.0737
lwrist 20.6334
lhand -22.21 9.42072
lfingers 7.12502
lthumb 4.20594 39.3589
rfemur -13.8718 0.741919 29.6674
rtibia 36.7678
rfoot -26.8984 -5.52097
rtoes -28.0146
lfemur -38.0806 1.76673 -14.8363
ltibia 84.3028
lfoot -26.6805 16.5978
ltoes -8.73509
313
root -28.9612 16.1443 12.8125 -145.129 81.7144 -166.438
lowerback 6.23876 -1.91591 7.16871
upperback 0.379173 -2.0056 0.394711
thorax -3.34415 -1.08941 -3.42859
lowerneck 0.409309 0.170541 -5.42847
upperneck -27.5549 1.92504 3.97103
head -8.70856 1.59092 2.07455
rclavicle 1.23309e-014 1.47722e-014
rhumerus -17.9256 17.6443 -90.1177
rradius 91.5108
rwrist -4.32671
rhand -1.02956 -23.8301
rfingers 7.12502
rthumb 24.6039 -52.2689
lclavicle 1.23309e-014 1.47722e-014
lhumerus -33.4673 2.6996 88.4452
lradius 82.4477
lwrist 20.3211
lhand -22.5672 9.32518
lfingers 7.12502
lthumb 3.86109 39.2699
rfemur -10.8001 1.40123 29.5382
rtibia 32.458
rfoot -24.0026 -5.13955
rtoes -28.2612
lfemur -41.0185 1.70598 -15.4704
ltibia 84.4633
lfoot -27.808 16.3091
ltoes -9.46159
314
root -28.5549 16.2364 12.809 -143.35 82.0608 -164.507
lowerback 5.96248 -1.56279 7.1599
upperback 0.431086 -1.57355 0.152979
thorax -3.09189 -0.868648 -3.72482
lowerneck 0.387231 -0.0611745 -5.10253
upperneck -27.3947 1.64495 4.09546
head -8.62957 1.41062 2.08051
rclavicle 7.28049e-015 3.8763e-014
rhumerus -16.4145 18.1353 -90.0178
rradius 93.301
rwrist -3.95211
rhand -0.727382 -23.3611
rfingers 7.12502
rthumb 24.8935 -51.7601
lclavicle 7.28049e-015 3.8763e-014
lhumerus -34.9272 2.88591 87.7108
lradius 81.5787
lwrist 19.3355
lhand -22.8 9.40472
lfingers 7.12502
lthumb 3.63627 39.3534
rfemur -7.21909 2.07198 29.5679
rtibia 27.6438
rfoot -20.4825 -4.44753
rtoes -30.1326
lfemur -43.3805 1.92568 -15.954
ltibia 84.047
lfoot -28.5311 17.2343
ltoes -12.331
315
root -28.1361 16.3312 12.7954 -141.979 82.1157 -162.999
lowerback 5.70242 -1.36079 7.12939
upperback 0.344007 -1.32082 0.299507
thorax -3.00231 -0.741062 -3.58187
lowerneck 0.267901 -0.187941 -5.42127
upperneck -26.8741 1.38538 4.0719
head -8.41512 1.30274 2.14375
rclavicle 1.03931e-014 2.78648e-015
rhumerus -15.4009 19.2972 -89.4534
rradius 94.9711
rwrist -3.25
rhand -0.489895 -23.5644
rfingers 7.12502
rthumb 25.1211 -51.9317
lclavicle 1.03931e-014 2.78648e-015
lhumerus -36.5469 3.65801 87.449
lradius 80.7221
lwrist 18.9005
lhand -22.9993 9.02704
lfingers 7.12502
lthumb 3.44375 38.979
rfemur -3.44097 2.25451 29.6298
rtibia 22.1504
rfoot -15.7681 -3.1764
rtoes -31.7281
lfemur -45.6141 1.79273 -16.3547
ltibia 83.0973
lfoot -29.3887 17.6369
ltoes -11.1752
316
root -27.7138 16.4262 12.7687 -140.964 81.8354 -161.682
lowerback 5.65124 -1.22995 7.66792
upperback 0.28811 -1.11597 0.235084
thorax -3.02058 -0.649148 -3.96947
lowerneck 0.205976 -0.403549 -5.55986
upperneck -26.4747 1.0918 4.31217
head -8.24963 1.14146 2.2672
rclavicle -1.84e-014 -6.12692e-014
rhumerus -14.5996 19.975 -89.102
rradius 96.4586
rwrist -1.62832
rhand 0.377704 -23.838
rfingers 7.12502
rthumb 25.9521 -52.0863
lclavicle -1.84e-014 -6.12692e-014
lhumerus -38.0837 4.04342 86.9508
lradius 79.936
lwrist 18.5555
lhand -23.0575 9.06762
lfingers 7.12502
lthumb 3.38757 39.0205
rfemur 0.923815 2.32875 29.8669
rtibia 15.8481
rfoot -10.1611 -2.29857
rtoes -33.2415
lfemur -47.3853 1.27264 -16.5754
ltibia 81.767
lfoot -29.7294 18.192
ltoes -12.2418
